HIERARCHY
ROOT SpineBase
{
  OFFSET 0.000000 0.000000 0.000000
  CHANNELS 6 Xposition Yposition Zposition Zrotation Xrotation Yrotation
  JOINT SpineMid
  {
    OFFSET -0.000000 22.535553 0.000000
    CHANNELS 3 Zrotation Xrotation Yrotation
    JOINT SpineShoulder
    {
      OFFSET 0.046011 16.953567 -0.549364
      CHANNELS 3 Zrotation Xrotation Yrotation
      JOINT Neck
      {
        OFFSET -0.001763 5.700352 -0.439817
        CHANNELS 3 Zrotation Xrotation Yrotation
        JOINT Head
        {
          OFFSET -0.962530 11.888475 2.088897
          CHANNELS 3 Zrotation Xrotation Yrotation
          End Site
          {
            OFFSET 0 0 0
          }
        }
      }
      JOINT ShoulderLeft
      {
        OFFSET -13.124179 -3.236407 4.521541
        CHANNELS 3 Zrotation Xrotation Yrotation
        JOINT ElbowLeft
        {
          OFFSET -3.651221 -21.127410 0.071699
          CHANNELS 3 Zrotation Xrotation Yrotation
          JOINT WristLeft
          {
            OFFSET -1.781560 -10.517353 -20.260813
            CHANNELS 3 Zrotation Xrotation Yrotation
            JOINT HandLeft
            {
              OFFSET -0.246387 -3.385273 -6.647242
              CHANNELS 3 Zrotation Xrotation Yrotation
              JOINT HandTipLeft
              {
                OFFSET -1.108163 -3.039884 -6.807062
                CHANNELS 3 Zrotation Xrotation Yrotation
                End Site
                {
                  OFFSET 0 0 0
                }
              }
              JOINT ThumbLeft
              {
                OFFSET -2.894465 2.837206 -2.774306
                CHANNELS 3 Zrotation Xrotation Yrotation
                End Site
                {
                  OFFSET 0 0 0
                }
              }
            }
          }
        }
      }
      JOINT ShoulderRight
      {
        OFFSET 10.408382 -3.374898 -7.564694
        CHANNELS 3 Zrotation Xrotation Yrotation
        JOINT ElbowRight
        {
          OFFSET 4.875509 -20.058195 -3.288914
          CHANNELS 3 Zrotation Xrotation Yrotation
          JOINT WristRight
          {
            OFFSET -14.424466 -10.486604 -11.492420
            CHANNELS 3 Zrotation Xrotation Yrotation
            JOINT HandRight
            {
              OFFSET -3.535479 -2.391406 -2.656469
              CHANNELS 3 Zrotation Xrotation Yrotation
              JOINT HandTipRight
              {
                OFFSET -4.081061 -3.240466 -7.658037
                CHANNELS 3 Zrotation Xrotation Yrotation
                End Site
                {
                  OFFSET 0 0 0
                }
              }
              JOINT ThumbRight
              {
                OFFSET 3.317506 -0.138634 -0.334984
                CHANNELS 3 Zrotation Xrotation Yrotation
                End Site
                {
                  OFFSET 0 0 0
                }
              }
            }
          }
        }
      }
    }
  }
  JOINT HipLeft
  {
    OFFSET -5.359218 1.219837 -0.730948
    CHANNELS 3 Zrotation Xrotation Yrotation
    JOINT KneeLeft
    {
      OFFSET -18.667515 -2.924734 -25.093238
      CHANNELS 3 Zrotation Xrotation Yrotation
      JOINT AnkleLeft
      {
        OFFSET -0.155974 -34.921138 1.610358
        CHANNELS 3 Zrotation Xrotation Yrotation
        JOINT FootLeft
        {
          OFFSET 2.173669 -4.790641 -6.560211
          CHANNELS 3 Zrotation Xrotation Yrotation
          End Site
          {
            OFFSET 0 0 0
          }
        }
      }
    }
  }
  JOINT HipRight
  {
    OFFSET 4.910319 1.389296 -4.802047
    CHANNELS 3 Zrotation Xrotation Yrotation
    JOINT KneeRight
    {
      OFFSET -16.058902 -1.852115 -28.181861
      CHANNELS 3 Zrotation Xrotation Yrotation
      JOINT AnkleRight
      {
        OFFSET -5.317877 -32.382501 1.305531
        CHANNELS 3 Zrotation Xrotation Yrotation
        JOINT FootRight
        {
          OFFSET -5.282587 -7.399336 3.219400
          CHANNELS 3 Zrotation Xrotation Yrotation
          End Site
          {
            OFFSET 0 0 0
          }
        }
      }
    }
  }
}
MOTION
Frames: 10
Frame Time: 0.033333
32.316148 46.507916 375.300511 2.720196 5.597525 35.701991 -0.064862 0.224421 -35.780800 -0.254623 -0.081019 0.100280 -31.300356 -3.591055 2.721332 0.000000 0.000000 0.000000 -97.758949 53.004777 37.203592 121.702666 52.260295 -51.065044 -24.705979 30.780556 -10.249900 67.485343 -17.044499 31.540346 0.000000 0.000000 0.000000 0.000000 0.000000 0.000000 -61.048233 40.539248 44.547792 -65.328570 19.557828 -1.511667 -16.560005 -1.209086 2.288082 15.002299 -3.785614 43.893377 0.000000 0.000000 0.000000 0.000000 0.000000 0.000000 -5.348395 -7.654605 -37.432039 0.648637 5.902037 1.420782 -28.947083 -10.462798 34.242221 0.000000 0.000000 0.000000 -6.329349 -10.896253 -32.778618 -3.442877 9.877044 -3.549860 46.441973 60.757398 -99.168488 0.000000 0.000000 0.000000
32.309333 46.250401 375.342245 2.063023 5.463673 33.778211 0.208643 0.068368 -33.817572 -0.576411 -0.178433 0.045149 -29.163225 -3.391031 2.758243 0.000000 0.000000 0.000000 -101.956842 53.713016 41.394874 124.668762 48.885518 -50.201027 -27.978999 30.867458 -10.495140 76.268633 -13.547406 36.133702 0.000000 0.000000 0.000000 0.000000 0.000000 0.000000 -62.982841 41.430929 47.338493 -65.122347 18.905140 -3.271413 -19.785276 -0.516727 3.599714 16.883887 -10.366973 42.485971 0.000000 0.000000 0.000000 0.000000 0.000000 0.000000 -4.476693 -7.772311 -35.419775 0.635729 5.521332 1.397018 -28.387689 -25.859026 27.147234 0.000000 0.000000 0.000000 -5.280574 -10.285843 -31.198371 -2.835954 8.959248 -3.206087 43.385156 60.022718 -94.284591 0.000000 0.000000 0.000000
32.079819 45.667165 375.339657 1.111189 5.415458 29.019282 0.542274 -0.101273 -29.010504 -0.788043 -0.239590 -0.007509 -26.785734 -3.531623 2.660217 0.000000 0.000000 0.000000 -102.906109 54.231178 43.290909 124.867825 46.834609 -48.696785 -29.938065 29.996878 -9.746119 82.695260 -10.700232 36.981740 0.000000 0.000000 0.000000 0.000000 0.000000 0.000000 -65.491296 42.667985 51.070549 -65.353773 18.038746 -5.708689 -21.438184 -2.647888 3.490617 17.793386 -17.916731 40.082531 0.000000 0.000000 0.000000 0.000000 0.000000 0.000000 -3.025962 -7.980855 -30.466655 0.744123 4.982372 1.306706 -28.040803 -28.341228 25.490978 0.000000 0.000000 0.000000 -3.588991 -9.226178 -27.348183 -1.827574 7.197586 -2.249647 27.926182 56.891514 -73.707880 0.000000 0.000000 0.000000
31.934040 45.007310 375.369217 0.403642 5.238828 23.017206 0.552150 -0.123295 -22.993344 -1.103484 -0.265345 -0.078095 -23.779329 -3.192151 2.712095 0.000000 0.000000 0.000000 -104.081243 54.838076 45.821328 124.146661 46.205405 -46.848083 -35.922831 30.737657 -8.035035 93.307534 -6.014964 37.325068 0.000000 0.000000 0.000000 0.000000 0.000000 0.000000 -69.883370 44.041162 56.941135 -65.057204 15.989237 -9.763084 -21.763831 1.800281 6.175466 20.410093 -16.609581 40.058559 0.000000 0.000000 0.000000 0.000000 0.000000 0.000000 -1.632736 -7.618016 -24.155325 0.873610 4.254625 1.106258 -26.514922 -20.559374 27.682895 0.000000 0.000000 0.000000 -2.086949 -7.866613 -22.012305 -0.892280 5.489916 -1.506948 15.679316 50.237017 -54.741918 0.000000 0.000000 0.000000
31.727037 44.398261 375.448516 -0.319255 5.127639 17.003668 0.562081 -0.110351 -16.969070 -1.267645 -0.214537 -0.130637 -20.949233 -3.498240 2.532243 0.000000 0.000000 0.000000 -105.746625 55.334168 48.425925 124.386540 44.886658 -45.230499 -48.954525 34.682921 -4.990600 104.230991 -1.522095 37.978701 0.000000 0.000000 0.000000 0.000000 0.000000 0.000000 -72.845306 45.473410 61.790939 -67.505565 14.542129 -12.468828 -18.054936 3.450696 6.269916 18.340621 -18.960422 39.885179 0.000000 0.000000 0.000000 0.000000 0.000000 0.000000 -0.314707 -7.226730 -17.995108 0.974759 3.608018 1.062053 -24.725480 -3.844258 31.411783 0.000000 0.000000 0.000000 -0.855278 -6.564535 -16.731858 -0.118039 3.967356 -0.693020 5.644799 37.339953 -34.440642 0.000000 0.000000 0.000000
31.539579 43.918600 375.520267 -0.918232 5.118110 11.660014 0.528309 -0.123825 -11.620259 -1.302617 -0.163739 -0.162845 -18.583908 -4.084725 2.280325 0.000000 0.000000 0.000000 -103.708190 55.678067 47.822991 121.963431 45.562839 -44.097856 -33.846611 36.667792 -11.625369 73.071296 -13.528104 34.009639 0.000000 0.000000 0.000000 0.000000 0.000000 0.000000 -74.586376 46.527728 65.095095 -71.450658 13.558646 -13.501146 -15.113545 0.749164 4.617404 24.526034 -0.461999 40.870281 0.000000 0.000000 0.000000 0.000000 0.000000 0.000000 0.740946 -6.897916 -12.418374 1.170059 3.259580 0.906081 -24.077651 5.408578 32.991599 0.000000 0.000000 0.000000 -0.134189 -5.197884 -11.625065 0.684468 2.425250 -0.385935 2.200827 14.715678 -11.963826 0.000000 0.000000 0.000000
31.385060 43.605968 375.575499 -1.260969 5.217959 8.253259 0.477666 -0.129331 -8.212424 -1.123700 -0.061904 -0.157671 -17.435270 -5.131668 1.933997 0.000000 0.000000 0.000000 -103.163119 55.521986 47.293526 121.021300 45.955859 -43.099580 -24.912026 38.421057 -16.282225 56.061714 -20.547548 31.264800 0.000000 0.000000 0.000000 0.000000 0.000000 0.000000 -77.051836 47.445176 68.537509 -75.667791 13.374876 -14.280465 -16.745341 -10.664046 -0.166632 31.326303 14.975476 38.519464 0.000000 0.000000 0.000000 0.000000 0.000000 0.000000 1.349272 -6.780255 -8.773704 1.473568 3.232845 0.711952 -24.463419 15.179967 35.342890 0.000000 0.000000 0.000000 0.434668 -5.043903 -8.973902 0.787624 1.975562 0.443684 3.052522 5.235689 -3.664851 0.000000 0.000000 0.000000
31.351065 43.550905 375.655950 -1.181053 5.411306 7.313558 0.350023 -0.097877 -7.282118 -0.708686 0.082294 -0.107609 -17.729134 -6.665921 1.464428 0.000000 0.000000 0.000000 -102.965112 54.867523 45.856721 121.423725 46.072870 -42.950008 -0.370442 31.893496 -24.193503 36.239548 -27.058056 31.541401 0.000000 0.000000 0.000000 0.000000 0.000000 0.000000 -79.480435 48.330820 71.321478 -80.152784 13.023732 -14.843131 -11.190631 -11.338104 -2.378486 31.525005 23.716323 38.605439 0.000000 0.000000 0.000000 0.000000 0.000000 0.000000 1.387522 -7.025660 -7.626111 1.722359 3.431934 0.506748 -24.104863 15.945597 34.586488 0.000000 0.000000 0.000000 0.408561 -5.177702 -8.211856 0.742144 1.749372 0.649869 2.841228 5.326652 -3.735581 0.000000 0.000000 0.000000
31.547328 43.825651 375.740133 -0.794270 5.598056 9.555437 0.088172 -0.111461 -9.549281 -0.260630 0.146896 -0.045712 -18.239470 -7.914542 1.048306 0.000000 0.000000 0.000000 -102.684253 53.636853 43.729927 122.636817 46.298637 -43.722261 16.806039 24.961869 -27.464961 16.319220 -30.785200 27.044738 0.000000 0.000000 0.000000 0.000000 0.000000 0.000000 -82.964222 49.307712 75.128382 -84.196474 12.809840 -16.144117 -8.759193 -14.130827 -4.941438 36.255615 34.726616 35.583603 0.000000 0.000000 0.000000 0.000000 0.000000 0.000000 0.884358 -7.597316 -9.689996 1.970245 3.998835 0.282556 -24.669568 14.925744 34.461127 0.000000 0.000000 0.000000 -0.145202 -5.652086 -9.523771 0.538030 1.913066 -0.301921 1.211123 21.590220 -17.943073 0.000000 0.000000 0.000000
31.658491 43.863990 375.808141 -0.747671 5.659381 9.392293 0.121009 -0.070804 -9.384325 -0.058702 0.126123 -0.017300 -18.047241 -8.715879 0.775852 0.000000 0.000000 0.000000 -101.549946 51.886453 40.888292 124.925640 46.300482 -45.960290 31.925626 15.318137 -25.382868 -3.782952 -31.713595 22.513510 0.000000 0.000000 0.000000 0.000000 0.000000 0.000000 -85.452179 49.892692 77.988139 -88.621189 12.030730 -16.699336 -1.001090 -9.342568 -5.331274 32.242081 35.011118 37.390558 0.000000 0.000000 0.000000 0.000000 0.000000 0.000000 0.880478 -7.745711 -9.281199 1.725129 3.809375 0.044862 -24.186031 19.849155 35.031443 0.000000 0.000000 0.000000 -0.185284 -5.705399 -9.364569 0.406940 1.785218 -0.283470 6.476813 42.453660 -39.972719 0.000000 0.000000 0.000000
